<?xml version="1.0" encoding="UTF-8" standalone="no"?>
<!-- Created with Inkscape (http://www.inkscape.org/) -->

<svg
   width="56.073704mm"
   height="61.115143mm"
   viewBox="0 0 56.073703 61.115142"
   version="1.1"
   id="svg1"
   xml:space="preserve"
   inkscape:version="1.4.2 (f4327f4, 2025-05-13)"
   sodipodi:docname="LogoSG.svg"
   xmlns:inkscape="http://www.inkscape.org/namespaces/inkscape"
   xmlns:sodipodi="http://sodipodi.sourceforge.net/DTD/sodipodi-0.dtd"
   xmlns="http://www.w3.org/2000/svg"
   xmlns:svg="http://www.w3.org/2000/svg"><sodipodi:namedview
     id="namedview1"
     pagecolor="#ffffff"
     bordercolor="#000000"
     borderopacity="0.25"
     inkscape:showpageshadow="2"
     inkscape:pageopacity="0.0"
     inkscape:pagecheckerboard="0"
     inkscape:deskcolor="#d1d1d1"
     inkscape:document-units="mm"
     inkscape:zoom="2.7545174"
     inkscape:cx="55.000561"
     inkscape:cy="133.4172"
     inkscape:window-width="1920"
     inkscape:window-height="991"
     inkscape:window-x="-9"
     inkscape:window-y="-9"
     inkscape:window-maximized="1"
     inkscape:current-layer="layer1" /><defs
     id="defs1"><linearGradient
       inkscape:collect="always"
       id="linearGradient118859">
      <stop
   style="stop-color:#fc0000;stop-opacity:1;"
   offset="0"
   id="stop118855" />
      <stop
   style="stop-color:#000000;stop-opacity:1;"
   offset="1"
   id="stop118857" />
    </linearGradient><linearGradient
       inkscape:collect="always"
       id="linearGradient119593">
      <stop
   style="stop-color:#000000;stop-opacity:1;"
   offset="0"
   id="stop119589" />
      <stop
   style="stop-color:#f70000;stop-opacity:1;"
   offset="1"
   id="stop119591" />
    </linearGradient><linearGradient
       id="swatch36"
       inkscape:swatch="solid"><stop
         style="stop-color:#ff04b5;stop-opacity:1;"
         offset="0"
         id="stop36" /></linearGradient><clipPath
       clipPathUnits="userSpaceOnUse"
       id="clipPath5"><rect
         style="fill:#000000;stroke:#000000;stroke-width:0;stroke-linejoin:bevel;paint-order:stroke markers fill;stop-color:#000000"
         id="rect5-4"
         width="20"
         height="200"
         x="530"
         y="595" /></clipPath><clipPath
       clipPathUnits="userSpaceOnUse"
       id="clipPath33"><rect
         style="fill:#000000;stroke:none;stroke-width:0.999995;stroke-linecap:butt;stroke-linejoin:bevel;paint-order:stroke markers fill;stop-color:#000000"
         id="rect33"
         width="46.19186"
         height="80.006783"
         x="74.999985"
         y="399.99661" /></clipPath><clipPath
       clipPathUnits="userSpaceOnUse"
       id="clipPath25"><rect
         style="fill:#ff0000;stroke:none;stroke-width:3;stroke-linecap:square;stroke-linejoin:miter;paint-order:stroke markers fill;stop-color:#000000"
         id="rect25-8"
         width="78"
         height="45.033199"
         x="763.61322"
         y="452.82422" /></clipPath><clipPath
       clipPathUnits="userSpaceOnUse"
       id="clipPath12"><path
         d="m 82.012619,105.58359 v 63.01166 h 58.688921 v -63.01166 z"
         style="fill:#464646;fill-opacity:0.00692043;stroke:#000000;stroke-width:0.256371"
         id="path12" /></clipPath></defs><g
     inkscape:label="Capa 1"
     inkscape:groupmode="layer"
     id="layer1"
     transform="translate(-83.216359,-106.92824)"><g
       id="g1"><path
         style="fill:#000000;fill-opacity:1;stroke-width:2.38838"
         d="m 118.7366,167.07864 c -0.78978,-0.51533 -1.79666,-2.0935 -2.23753,-3.50702 -0.51223,-1.64241 -1.71987,-3.31795 -3.34562,-4.64195 -3.29055,-2.67979 -4.1181,-4.63006 -2.77495,-6.53965 0.55428,-0.78803 1.74061,-1.60413 2.6363,-1.81355 1.42974,-0.33428 1.62855,-0.71215 1.62855,-3.09527 0,-1.65437 0.25572,-2.5673 0.65474,-2.33757 1.75041,1.00777 0.0685,6.40417 -1.99586,6.40417 -0.32608,0 -1.10017,0.72122 -1.7202,1.60274 -1.10915,1.57694 -1.09485,1.62851 0.88792,3.20208 1.10839,0.87962 3.00423,2.21684 4.21298,2.97161 1.39017,0.86807 1.79689,1.37234 1.10688,1.37234 -1.74099,0 -0.31123,3.64213 2.21471,5.64173 2.26218,1.79082 1.24887,2.38249 -1.26792,0.74034 z m -35.520241,-9.17816 v -9.50526 l 2.896581,-3.45552 c 3.406985,-4.0644 7.571336,-11.41187 7.57589,-13.3667 0.0018,-0.78174 -0.397836,-1.37231 -0.928656,-1.37231 -1.295387,0 -4.793412,2.84501 -7.022354,5.71139 -1.409563,1.81265 -1.86674,2.10867 -1.86674,1.20862 0,-1.97228 3.526185,-6.4861 6.718279,-8.59995 l 2.99737,-1.98492 0.458859,1.98492 c 0.252382,1.0917 0.864243,2.7241 1.359701,3.62756 0.495483,0.90346 0.644229,1.7904 0.330602,1.97097 -0.313651,0.1805 -0.705623,1.84901 -0.871072,3.70762 -0.223454,2.51138 -0.724479,3.80663 -1.950307,5.04309 -0.907201,0.91507 -1.846646,2.18275 -2.087644,2.81707 -0.59016,1.55327 0.99688,3.6674 3.469171,4.62136 1.108186,0.42762 2.014892,0.9746 2.014892,1.21551 0,0.90987 3.463182,1.85367 6.801839,1.85367 h 3.46655 l 0.82572,2.56735 c 0.45809,1.42431 1.79267,3.39305 2.99756,4.42191 1.19453,1.02 2.6029,3.02101 3.12972,4.44669 l 0.95787,2.59215 H 98.853308 83.216389 Z m 23.242651,-9.77458 c 1.24255,-1.05078 1.66343,-1.75419 1.14577,-1.91493 -0.45,-0.1397 -0.81819,-0.7801 -0.81819,-1.42307 0,-0.81323 0.45832,-1.16902 1.5059,-1.16902 1.89334,0 3.07722,1.07438 3.07722,2.79264 0,1.31611 -1.36158,2.09467 -5.23784,2.99506 -1.608,0.37351 -1.60223,0.35094 0.32714,-1.28068 z m -11.292765,-0.0578 c -1.786093,-0.32053 -2.777925,-3.08182 -1.399145,-3.89524 1.734648,-1.02339 2.590601,-0.63471 2.155844,0.97893 -0.236816,0.87909 -0.0683,1.9195 0.395065,2.43967 0.444383,0.49882 0.698274,0.86959 0.564152,0.8239 -0.134122,-0.0456 -0.906286,-0.20193 -1.715916,-0.34726 z m 33.498845,-2.96313 c -1.28163,-1.86638 -2.78312,-4.67963 -3.33666,-6.25166 -0.55351,-1.57201 -1.39308,-3.59752 -1.86573,-4.50109 -0.47261,-0.90359 -0.69119,-2.24181 -0.48568,-2.97385 0.3361,-1.1973 0.49504,-1.09843 1.58261,0.98448 0.66497,1.27351 1.67724,4.12129 2.24951,6.32841 0.57229,2.20711 1.8871,5.31665 2.9218,6.91005 2.61893,4.03304 1.77436,3.63977 -1.06585,-0.49634 z m -17.95012,-5.66081 c -2.5856,-1.41571 -3.63875,-1.61023 -8.60306,-1.58889 -4.388025,0.0184 -5.58334,-0.15398 -5.329301,-0.77072 1.289349,-3.13 17.019701,-0.4379 17.737801,3.03565 0.28314,1.36961 -0.23855,1.27692 -3.80544,-0.67604 z m 6.35578,-1.22644 c 0.18634,-1.29345 0.0314,-2.88622 -0.34375,-3.5395 -0.54462,-0.94797 -0.42307,-1.33861 0.60214,-1.93503 0.70647,-0.411 1.86323,-1.63149 2.57056,-2.71216 1.17451,-1.79445 1.28626,-1.84235 1.28851,-0.55247 0.002,1.90772 -1.13944,3.77191 -2.31214,3.77191 -1.13558,0 -1.14649,0.0712 -0.32066,2.09474 0.78256,1.91742 0.15887,5.22428 -0.98532,5.22428 -0.59444,0 -0.73955,-0.68342 -0.49934,-2.35177 z m 15.57767,-3.48531 c -1.80051,-1.70084 -3.96888,-3.53179 -4.8186,-4.06874 -0.84972,-0.53698 -1.42935,-1.2994 -1.28806,-1.69428 0.2945,-0.82301 6.36259,4.05766 8.4658,6.80918 2.10253,2.75065 1.26873,2.3809 -2.35914,-1.04616 z m 5.68612,0.0466 c -1.2506,-2.55688 -6.01407,-6.94331 -10.07729,-9.27964 -2.54046,-1.46073 -3.72778,-2.50584 -3.49334,-3.07493 0.19524,-0.47415 0.35513,-1.38858 0.35513,-2.03206 0,-0.8869 0.4637,-1.16996 1.91665,-1.16996 2.51821,0 4.62722,-2.46274 4.64065,-5.41904 0.007,-1.64813 0.17025,-1.9739 0.6447,-1.29006 0.34909,0.50317 0.63921,1.93779 0.64473,3.18802 0.01,2.45223 -1.28174,3.66945 -4.73677,4.46078 -1.32001,0.30232 -1.80053,0.79024 -1.80053,1.82827 0,1.08299 0.72953,1.7486 3.10279,2.83098 4.17527,1.90424 8.42303,5.93221 9.27025,8.79055 0.81164,2.73833 0.58212,3.312 -0.46697,1.16709 z M 83.216359,120.80373 v -10.7301 h 4.210032 4.210032 l -0.53468,1.73674 c -0.630248,2.04713 1.541978,7.41203 3.001106,7.41203 0.623715,0 0.89864,0.81017 0.89864,2.64808 0,2.55025 -0.09453,2.67447 -2.556575,3.36163 -1.406099,0.39246 -4.057747,1.97088 -5.892565,3.50762 l -3.33599,2.79407 z m 12.905565,-6.18413 c -1.203357,-3.96266 -1.232558,-4.29208 -0.283561,-3.19888 0.8514,0.98072 1.055948,0.97526 3.47125,-0.0927 1.949687,-0.86212 4.817557,-1.22939 11.932517,-1.52807 l 9.36599,-0.39318 1.8634,1.85825 c 2.01071,2.00516 3.38063,2.32521 4.51284,1.05435 0.53144,-0.59652 0.3829,-1.38326 -0.57583,-3.0496 -1.43067,-2.48662 -0.45277,-3.19731 1.55529,-1.13028 1.34691,1.38641 1.36908,2.70031 0.0846,5.01409 -1.44723,2.60707 -5.10496,2.35546 -6.24153,-0.42939 -0.81356,-1.99333 -3.0207,-2.6443 -6.7595,-1.99361 -1.7108,0.29772 -3.34567,0.67672 -3.63306,0.84218 -0.2874,0.16552 -2.18619,-0.0242 -4.21951,-0.42153 -3.28536,-0.64195 -3.93298,-0.59615 -5.81732,0.41148 -1.16619,0.62361 -2.74439,1.8346 -3.507102,2.6911 -1.304048,1.4644 -1.408326,1.48621 -1.748554,0.36585 z m -0.465714,-5.1199 c 0,-0.31565 0.291257,-0.74161 0.647223,-0.94656 0.371161,-0.21369 0.480908,0.0311 0.257331,0.57393 -0.435252,1.05663 -0.904554,1.24997 -0.904554,0.37263 z"
         id="path1"
         clip-path="url(#clipPath12)"
         sodipodi:nodetypes="scsssssssccsssccscscsccccccsccsscsssccccscsssssccccccscccccsscccscccsscscscsccsssccsscscssssscccccsscccccccscsssccccccssccsccs" /><text
         xml:space="preserve"
         style="font-size:4.23333px;text-align:start;writing-mode:lr-tb;direction:ltr;text-anchor:start;display:inline;fill:#000000;stroke:#000000;stroke-width:0.264583"
         x="110.39476"
         y="172.24519"
         id="text1"><tspan
           sodipodi:role="line"
           id="tspan1"
           style="font-style:normal;font-variant:normal;font-weight:normal;font-stretch:normal;font-size:4.23333px;font-family:'MV Boli';-inkscape-font-specification:'MV Boli';text-align:center;text-anchor:middle;fill:#28220b;stroke:#000000;stroke-width:0.264583;stroke-opacity:0"
           x="110.39476"
           y="172.24519" /></text></g></g></svg>
